<?xml version="1.0" encoding="utf-8" standalone="no"?>
<!DOCTYPE svg PUBLIC "-//W3C//DTD SVG 1.1//EN"
  "http://www.w3.org/Graphics/SVG/1.1/DTD/svg11.dtd">
<svg xmlns:xlink="http://www.w3.org/1999/xlink" width="288pt" height="288pt" viewBox="0 0 288 288" xmlns="http://www.w3.org/2000/svg" version="1.1">
 <metadata>
  <rdf:RDF xmlns:dc="http://purl.org/dc/elements/1.1/" xmlns:cc="http://creativecommons.org/ns#" xmlns:rdf="http://www.w3.org/1999/02/22-rdf-syntax-ns#">
   <cc:Work>
    <dc:type rdf:resource="http://purl.org/dc/dcmitype/StillImage"/>
    <dc:date>2025-07-04T23:58:55.656052</dc:date>
    <dc:format>image/svg+xml</dc:format>
    <dc:creator>
     <cc:Agent>
      <dc:title>Matplotlib v3.8.1, https://matplotlib.org/</dc:title>
     </cc:Agent>
    </dc:creator>
   </cc:Work>
  </rdf:RDF>
 </metadata>
 <defs>
  <style type="text/css">*{stroke-linejoin: round; stroke-linecap: butt}</style>
 </defs>
 <g id="figure_1">
  <g id="patch_1">
   <path d="M 0 288 
L 288 288 
L 288 0 
L 0 0 
z
" style="fill: #ffffff"/>
  </g>
  <g id="axes_1">
   <g id="patch_2">
    <path d="M 33.381048 155.180303 
C 33.381048 166.987181 35.233169 178.721313 38.869775 189.954188 
C 42.506382 201.187063 47.88266 211.78026 54.802277 221.346936 
C 61.721895 230.913611 70.099583 239.335876 79.629403 246.306163 
C 89.159223 253.276451 99.723741 258.708869 110.93716 262.405033 
C 122.150578 266.101198 133.874716 268.015563 145.681428 268.078219 
C 157.488141 268.140874 169.231936 266.351049 180.483951 262.774104 
C 191.735966 259.197158 202.357545 253.877171 211.960806 247.008418 
C 221.564067 240.139666 230.030671 231.80679 237.051433 222.314094 
C 244.072195 212.821397 249.560598 202.285856 253.316217 191.09221 
C 257.071837 179.898564 259.048391 168.184751 259.173701 156.378537 
C 259.299011 144.572323 257.571531 132.819195 254.054348 121.548357 
C 250.537164 110.277518 245.273617 99.627857 238.455923 89.988281 
C 231.638229 80.348705 223.350401 71.837999 213.895095 64.766962 
C 204.439789 57.695924 193.933522 52.151688 182.759964 48.33672 
C 171.586406 44.521753 159.883246 42.483064 148.077863 42.295104 
C 136.272481 42.107144 124.510351 43.772228 113.221007 47.229551 
L 146.280554 155.180303 
z
" style="fill: #4a2222; opacity: 0.5; stroke: #4a2222; stroke-linejoin: miter"/>
   </g>
   <g id="patch_3">
    <path d="M 104.143919 40.516172 
C 87.263845 45.685636 71.82925 54.743017 59.083909 66.958438 
C 46.338567 79.173859 36.634285 94.210141 30.753068 110.855607 
L 137.203466 148.466923 
z
" style="fill: #1d324b; opacity: 0.5; stroke: #1d324b; stroke-linejoin: miter"/>
   </g>
   <g id="patch_4">
    <path d="M 30.753068 110.855607 
C 30.353872 111.985441 29.972689 113.121558 29.609664 114.263528 
C 29.246639 115.405498 28.901818 116.553175 28.575332 117.706122 
L 137.203466 148.466923 
z
" style="fill: #103f2e; opacity: 0.5; stroke: #103f2e; stroke-linejoin: miter"/>
   </g>
   <g id="patch_5">
    <path d="M 28.575332 117.706122 
C 27.160027 122.704105 26.091344 127.793811 25.376901 132.938953 
C 24.662459 138.084096 24.30396 143.272416 24.30396 148.466925 
L 137.203466 148.466923 
z
" style="fill: #4c3f17; opacity: 0.5; stroke: #4c3f17; stroke-linejoin: miter"/>
   </g>
   <g id="patch_6">
    <path d="M 35.639038 152.922312 
C 35.639038 164.729191 37.491159 176.463323 41.127766 187.696198 
C 44.764372 198.929073 50.14065 209.52227 57.060267 219.088945 
C 63.979885 228.655621 72.357573 237.077886 81.887393 244.048173 
C 91.417213 251.018461 101.981732 256.450879 113.19515 260.147043 
C 124.408568 263.843208 136.132706 265.757573 147.939418 265.820228 
C 159.746131 265.882884 171.489926 264.093059 182.741941 260.516113 
C 193.993956 256.939168 204.615535 251.619181 214.218796 244.750428 
C 223.822057 237.881676 232.288661 229.5488 239.309423 220.056104 
C 246.330185 210.563407 251.818589 200.027866 255.574208 188.83422 
C 259.329827 177.640574 261.306381 165.92676 261.431691 154.120547 
C 261.557001 142.314333 259.829521 130.561205 256.312338 119.290367 
C 252.795154 108.019528 247.531607 97.369867 240.713913 87.730291 
C 233.896219 78.090715 225.608391 69.580009 216.153085 62.508972 
C 206.69778 55.437934 196.191512 49.893698 185.017954 46.07873 
C 173.844396 42.263763 162.141236 40.225074 150.335853 40.037114 
C 138.530471 39.849154 126.768341 41.514238 115.478997 44.971561 
L 148.538544 152.922312 
z
" style="fill: #f87171"/>
   </g>
   <g id="patch_7">
    <path d="M 106.401909 38.258182 
C 89.521836 43.427646 74.08724 52.485027 61.341899 64.700448 
C 48.596557 76.915869 38.892275 91.952151 33.011058 108.597617 
L 139.461456 146.208933 
z
" style="fill: #60a5fa"/>
   </g>
   <g id="patch_8">
    <path d="M 33.011058 108.597617 
C 32.611862 109.727451 32.230679 110.863568 31.867654 112.005538 
C 31.504629 113.147508 31.159808 114.295185 30.833322 115.448132 
L 139.461456 146.208933 
z
" style="fill: #34d399"/>
   </g>
   <g id="patch_9">
    <path d="M 30.833322 115.448132 
C 29.418017 120.446115 28.349334 125.535821 27.634891 130.680963 
C 26.920449 135.826105 26.56195 141.014426 26.56195 146.208935 
L 139.461456 146.208933 
z
" style="fill: #fcd34d"/>
   </g>
   <g id="matplotlib.axis_1"/>
   <g id="matplotlib.axis_2"/>
   <g id="text_1">
    <!-- Language Distribution -->
    <g transform="translate(77.47875 20.88) scale(0.12 -0.12)">
     <defs>
      <path id="DejaVuSans-4c" d="M 628 4666 
L 1259 4666 
L 1259 531 
L 3531 531 
L 3531 0 
L 628 0 
L 628 4666 
z
" transform="scale(0.015625)"/>
      <path id="DejaVuSans-61" d="M 2194 1759 
Q 1497 1759 1228 1600 
Q 959 1441 959 1056 
Q 959 750 1161 570 
Q 1363 391 1709 391 
Q 2188 391 2477 730 
Q 2766 1069 2766 1631 
L 2766 1759 
L 2194 1759 
z
M 3341 1997 
L 3341 0 
L 2766 0 
L 2766 531 
Q 2569 213 2275 61 
Q 1981 -91 1556 -91 
Q 1019 -91 701 211 
Q 384 513 384 1019 
Q 384 1609 779 1909 
Q 1175 2209 1959 2209 
L 2766 2209 
L 2766 2266 
Q 2766 2663 2505 2880 
Q 2244 3097 1772 3097 
Q 1472 3097 1187 3025 
Q 903 2953 641 2809 
L 641 3341 
Q 956 3463 1253 3523 
Q 1550 3584 1831 3584 
Q 2591 3584 2966 3190 
Q 3341 2797 3341 1997 
z
" transform="scale(0.015625)"/>
      <path id="DejaVuSans-6e" d="M 3513 2113 
L 3513 0 
L 2938 0 
L 2938 2094 
Q 2938 2591 2744 2837 
Q 2550 3084 2163 3084 
Q 1697 3084 1428 2787 
Q 1159 2491 1159 1978 
L 1159 0 
L 581 0 
L 581 3500 
L 1159 3500 
L 1159 2956 
Q 1366 3272 1645 3428 
Q 1925 3584 2291 3584 
Q 2894 3584 3203 3211 
Q 3513 2838 3513 2113 
z
" transform="scale(0.015625)"/>
      <path id="DejaVuSans-67" d="M 2906 1791 
Q 2906 2416 2648 2759 
Q 2391 3103 1925 3103 
Q 1463 3103 1205 2759 
Q 947 2416 947 1791 
Q 947 1169 1205 825 
Q 1463 481 1925 481 
Q 2391 481 2648 825 
Q 2906 1169 2906 1791 
z
M 3481 434 
Q 3481 -459 3084 -895 
Q 2688 -1331 1869 -1331 
Q 1566 -1331 1297 -1286 
Q 1028 -1241 775 -1147 
L 775 -588 
Q 1028 -725 1275 -790 
Q 1522 -856 1778 -856 
Q 2344 -856 2625 -561 
Q 2906 -266 2906 331 
L 2906 616 
Q 2728 306 2450 153 
Q 2172 0 1784 0 
Q 1141 0 747 490 
Q 353 981 353 1791 
Q 353 2603 747 3093 
Q 1141 3584 1784 3584 
Q 2172 3584 2450 3431 
Q 2728 3278 2906 2969 
L 2906 3500 
L 3481 3500 
L 3481 434 
z
" transform="scale(0.015625)"/>
      <path id="DejaVuSans-75" d="M 544 1381 
L 544 3500 
L 1119 3500 
L 1119 1403 
Q 1119 906 1312 657 
Q 1506 409 1894 409 
Q 2359 409 2629 706 
Q 2900 1003 2900 1516 
L 2900 3500 
L 3475 3500 
L 3475 0 
L 2900 0 
L 2900 538 
Q 2691 219 2414 64 
Q 2138 -91 1772 -91 
Q 1169 -91 856 284 
Q 544 659 544 1381 
z
M 1991 3584 
L 1991 3584 
z
" transform="scale(0.015625)"/>
      <path id="DejaVuSans-65" d="M 3597 1894 
L 3597 1613 
L 953 1613 
Q 991 1019 1311 708 
Q 1631 397 2203 397 
Q 2534 397 2845 478 
Q 3156 559 3463 722 
L 3463 178 
Q 3153 47 2828 -22 
Q 2503 -91 2169 -91 
Q 1331 -91 842 396 
Q 353 884 353 1716 
Q 353 2575 817 3079 
Q 1281 3584 2069 3584 
Q 2775 3584 3186 3129 
Q 3597 2675 3597 1894 
z
M 3022 2063 
Q 3016 2534 2758 2815 
Q 2500 3097 2075 3097 
Q 1594 3097 1305 2825 
Q 1016 2553 972 2059 
L 3022 2063 
z
" transform="scale(0.015625)"/>
      <path id="DejaVuSans-20" transform="scale(0.015625)"/>
      <path id="DejaVuSans-44" d="M 1259 4147 
L 1259 519 
L 2022 519 
Q 2988 519 3436 956 
Q 3884 1394 3884 2338 
Q 3884 3275 3436 3711 
Q 2988 4147 2022 4147 
L 1259 4147 
z
M 628 4666 
L 1925 4666 
Q 3281 4666 3915 4102 
Q 4550 3538 4550 2338 
Q 4550 1131 3912 565 
Q 3275 0 1925 0 
L 628 0 
L 628 4666 
z
" transform="scale(0.015625)"/>
      <path id="DejaVuSans-69" d="M 603 3500 
L 1178 3500 
L 1178 0 
L 603 0 
L 603 3500 
z
M 603 4863 
L 1178 4863 
L 1178 4134 
L 603 4134 
L 603 4863 
z
" transform="scale(0.015625)"/>
      <path id="DejaVuSans-73" d="M 2834 3397 
L 2834 2853 
Q 2591 2978 2328 3040 
Q 2066 3103 1784 3103 
Q 1356 3103 1142 2972 
Q 928 2841 928 2578 
Q 928 2378 1081 2264 
Q 1234 2150 1697 2047 
L 1894 2003 
Q 2506 1872 2764 1633 
Q 3022 1394 3022 966 
Q 3022 478 2636 193 
Q 2250 -91 1575 -91 
Q 1294 -91 989 -36 
Q 684 19 347 128 
L 347 722 
Q 666 556 975 473 
Q 1284 391 1588 391 
Q 1994 391 2212 530 
Q 2431 669 2431 922 
Q 2431 1156 2273 1281 
Q 2116 1406 1581 1522 
L 1381 1569 
Q 847 1681 609 1914 
Q 372 2147 372 2553 
Q 372 3047 722 3315 
Q 1072 3584 1716 3584 
Q 2034 3584 2315 3537 
Q 2597 3491 2834 3397 
z
" transform="scale(0.015625)"/>
      <path id="DejaVuSans-74" d="M 1172 4494 
L 1172 3500 
L 2356 3500 
L 2356 3053 
L 1172 3053 
L 1172 1153 
Q 1172 725 1289 603 
Q 1406 481 1766 481 
L 2356 481 
L 2356 0 
L 1766 0 
Q 1100 0 847 248 
Q 594 497 594 1153 
L 594 3053 
L 172 3053 
L 172 3500 
L 594 3500 
L 594 4494 
L 1172 4494 
z
" transform="scale(0.015625)"/>
      <path id="DejaVuSans-72" d="M 2631 2963 
Q 2534 3019 2420 3045 
Q 2306 3072 2169 3072 
Q 1681 3072 1420 2755 
Q 1159 2438 1159 1844 
L 1159 0 
L 581 0 
L 581 3500 
L 1159 3500 
L 1159 2956 
Q 1341 3275 1631 3429 
Q 1922 3584 2338 3584 
Q 2397 3584 2469 3576 
Q 2541 3569 2628 3553 
L 2631 2963 
z
" transform="scale(0.015625)"/>
      <path id="DejaVuSans-62" d="M 3116 1747 
Q 3116 2381 2855 2742 
Q 2594 3103 2138 3103 
Q 1681 3103 1420 2742 
Q 1159 2381 1159 1747 
Q 1159 1113 1420 752 
Q 1681 391 2138 391 
Q 2594 391 2855 752 
Q 3116 1113 3116 1747 
z
M 1159 2969 
Q 1341 3281 1617 3432 
Q 1894 3584 2278 3584 
Q 2916 3584 3314 3078 
Q 3713 2572 3713 1747 
Q 3713 922 3314 415 
Q 2916 -91 2278 -91 
Q 1894 -91 1617 61 
Q 1341 213 1159 525 
L 1159 0 
L 581 0 
L 581 4863 
L 1159 4863 
L 1159 2969 
z
" transform="scale(0.015625)"/>
      <path id="DejaVuSans-6f" d="M 1959 3097 
Q 1497 3097 1228 2736 
Q 959 2375 959 1747 
Q 959 1119 1226 758 
Q 1494 397 1959 397 
Q 2419 397 2687 759 
Q 2956 1122 2956 1747 
Q 2956 2369 2687 2733 
Q 2419 3097 1959 3097 
z
M 1959 3584 
Q 2709 3584 3137 3096 
Q 3566 2609 3566 1747 
Q 3566 888 3137 398 
Q 2709 -91 1959 -91 
Q 1206 -91 779 398 
Q 353 888 353 1747 
Q 353 2609 779 3096 
Q 1206 3584 1959 3584 
z
" transform="scale(0.015625)"/>
     </defs>
     <use xlink:href="#DejaVuSans-4c"/>
     <use xlink:href="#DejaVuSans-61" x="55.712891"/>
     <use xlink:href="#DejaVuSans-6e" x="116.992188"/>
     <use xlink:href="#DejaVuSans-67" x="180.371094"/>
     <use xlink:href="#DejaVuSans-75" x="243.847656"/>
     <use xlink:href="#DejaVuSans-61" x="307.226562"/>
     <use xlink:href="#DejaVuSans-67" x="368.505859"/>
     <use xlink:href="#DejaVuSans-65" x="431.982422"/>
     <use xlink:href="#DejaVuSans-20" x="493.505859"/>
     <use xlink:href="#DejaVuSans-44" x="525.292969"/>
     <use xlink:href="#DejaVuSans-69" x="602.294922"/>
     <use xlink:href="#DejaVuSans-73" x="630.078125"/>
     <use xlink:href="#DejaVuSans-74" x="682.177734"/>
     <use xlink:href="#DejaVuSans-72" x="721.386719"/>
     <use xlink:href="#DejaVuSans-69" x="762.5"/>
     <use xlink:href="#DejaVuSans-62" x="790.283203"/>
     <use xlink:href="#DejaVuSans-75" x="853.759766"/>
     <use xlink:href="#DejaVuSans-74" x="917.138672"/>
     <use xlink:href="#DejaVuSans-69" x="956.347656"/>
     <use xlink:href="#DejaVuSans-6f" x="984.130859"/>
     <use xlink:href="#DejaVuSans-6e" x="1045.3125"/>
    </g>
   </g>
   <g id="legend_1">
    <g id="patch_10">
     <path d="M 213.8375 273.2 
L 271.6 273.2 
Q 273.2 273.2 273.2 271.6 
L 273.2 211.529375 
Q 273.2 209.929375 271.6 209.929375 
L 213.8375 209.929375 
Q 212.2375 209.929375 212.2375 211.529375 
L 212.2375 271.6 
Q 212.2375 273.2 213.8375 273.2 
z
" style="fill: #ffffff; opacity: 0.8; stroke: #cccccc; stroke-linejoin: miter"/>
    </g>
    <g id="text_2">
     <!-- Languages -->
     <g transform="translate(215.4375 220.727812) scale(0.1 -0.1)">
      <use xlink:href="#DejaVuSans-4c"/>
      <use xlink:href="#DejaVuSans-61" x="55.712891"/>
      <use xlink:href="#DejaVuSans-6e" x="116.992188"/>
      <use xlink:href="#DejaVuSans-67" x="180.371094"/>
      <use xlink:href="#DejaVuSans-75" x="243.847656"/>
      <use xlink:href="#DejaVuSans-61" x="307.226562"/>
      <use xlink:href="#DejaVuSans-67" x="368.505859"/>
      <use xlink:href="#DejaVuSans-65" x="431.982422"/>
      <use xlink:href="#DejaVuSans-73" x="493.505859"/>
     </g>
    </g>
    <g id="patch_11">
     <path d="M 217.52625 232.88625 
L 233.52625 232.88625 
L 233.52625 227.28625 
L 217.52625 227.28625 
z
" style="fill: #f87171"/>
    </g>
    <g id="text_3">
     <!-- cpp -->
     <g transform="translate(239.92625 232.88625) scale(0.08 -0.08)">
      <defs>
       <path id="DejaVuSans-63" d="M 3122 3366 
L 3122 2828 
Q 2878 2963 2633 3030 
Q 2388 3097 2138 3097 
Q 1578 3097 1268 2742 
Q 959 2388 959 1747 
Q 959 1106 1268 751 
Q 1578 397 2138 397 
Q 2388 397 2633 464 
Q 2878 531 3122 666 
L 3122 134 
Q 2881 22 2623 -34 
Q 2366 -91 2075 -91 
Q 1284 -91 818 406 
Q 353 903 353 1747 
Q 353 2603 823 3093 
Q 1294 3584 2113 3584 
Q 2378 3584 2631 3529 
Q 2884 3475 3122 3366 
z
" transform="scale(0.015625)"/>
       <path id="DejaVuSans-70" d="M 1159 525 
L 1159 -1331 
L 581 -1331 
L 581 3500 
L 1159 3500 
L 1159 2969 
Q 1341 3281 1617 3432 
Q 1894 3584 2278 3584 
Q 2916 3584 3314 3078 
Q 3713 2572 3713 1747 
Q 3713 922 3314 415 
Q 2916 -91 2278 -91 
Q 1894 -91 1617 61 
Q 1341 213 1159 525 
z
M 3116 1747 
Q 3116 2381 2855 2742 
Q 2594 3103 2138 3103 
Q 1681 3103 1420 2742 
Q 1159 2381 1159 1747 
Q 1159 1113 1420 752 
Q 1681 391 2138 391 
Q 2594 391 2855 752 
Q 3116 1113 3116 1747 
z
" transform="scale(0.015625)"/>
      </defs>
      <use xlink:href="#DejaVuSans-63"/>
      <use xlink:href="#DejaVuSans-70" x="54.980469"/>
      <use xlink:href="#DejaVuSans-70" x="118.457031"/>
     </g>
    </g>
    <g id="patch_12">
     <path d="M 217.52625 244.62875 
L 233.52625 244.62875 
L 233.52625 239.02875 
L 217.52625 239.02875 
z
" style="fill: #60a5fa"/>
    </g>
    <g id="text_4">
     <!-- python -->
     <g transform="translate(239.92625 244.62875) scale(0.08 -0.08)">
      <defs>
       <path id="DejaVuSans-79" d="M 2059 -325 
Q 1816 -950 1584 -1140 
Q 1353 -1331 966 -1331 
L 506 -1331 
L 506 -850 
L 844 -850 
Q 1081 -850 1212 -737 
Q 1344 -625 1503 -206 
L 1606 56 
L 191 3500 
L 800 3500 
L 1894 763 
L 2988 3500 
L 3597 3500 
L 2059 -325 
z
" transform="scale(0.015625)"/>
       <path id="DejaVuSans-68" d="M 3513 2113 
L 3513 0 
L 2938 0 
L 2938 2094 
Q 2938 2591 2744 2837 
Q 2550 3084 2163 3084 
Q 1697 3084 1428 2787 
Q 1159 2491 1159 1978 
L 1159 0 
L 581 0 
L 581 4863 
L 1159 4863 
L 1159 2956 
Q 1366 3272 1645 3428 
Q 1925 3584 2291 3584 
Q 2894 3584 3203 3211 
Q 3513 2838 3513 2113 
z
" transform="scale(0.015625)"/>
      </defs>
      <use xlink:href="#DejaVuSans-70"/>
      <use xlink:href="#DejaVuSans-79" x="63.476562"/>
      <use xlink:href="#DejaVuSans-74" x="122.65625"/>
      <use xlink:href="#DejaVuSans-68" x="161.865234"/>
      <use xlink:href="#DejaVuSans-6f" x="225.244141"/>
      <use xlink:href="#DejaVuSans-6e" x="286.425781"/>
     </g>
    </g>
    <g id="patch_13">
     <path d="M 217.52625 256.37125 
L 233.52625 256.37125 
L 233.52625 250.77125 
L 217.52625 250.77125 
z
" style="fill: #34d399"/>
    </g>
    <g id="text_5">
     <!-- js_ts -->
     <g transform="translate(239.92625 256.37125) scale(0.08 -0.08)">
      <defs>
       <path id="DejaVuSans-6a" d="M 603 3500 
L 1178 3500 
L 1178 -63 
Q 1178 -731 923 -1031 
Q 669 -1331 103 -1331 
L -116 -1331 
L -116 -844 
L 38 -844 
Q 366 -844 484 -692 
Q 603 -541 603 -63 
L 603 3500 
z
M 603 4863 
L 1178 4863 
L 1178 4134 
L 603 4134 
L 603 4863 
z
" transform="scale(0.015625)"/>
       <path id="DejaVuSans-5f" d="M 3263 -1063 
L 3263 -1509 
L -63 -1509 
L -63 -1063 
L 3263 -1063 
z
" transform="scale(0.015625)"/>
      </defs>
      <use xlink:href="#DejaVuSans-6a"/>
      <use xlink:href="#DejaVuSans-73" x="27.783203"/>
      <use xlink:href="#DejaVuSans-5f" x="79.882812"/>
      <use xlink:href="#DejaVuSans-74" x="129.882812"/>
      <use xlink:href="#DejaVuSans-73" x="169.091797"/>
     </g>
    </g>
    <g id="patch_14">
     <path d="M 217.52625 268.33625 
L 233.52625 268.33625 
L 233.52625 262.73625 
L 217.52625 262.73625 
z
" style="fill: #fcd34d"/>
    </g>
    <g id="text_6">
     <!-- mysql -->
     <g transform="translate(239.92625 268.33625) scale(0.08 -0.08)">
      <defs>
       <path id="DejaVuSans-6d" d="M 3328 2828 
Q 3544 3216 3844 3400 
Q 4144 3584 4550 3584 
Q 5097 3584 5394 3201 
Q 5691 2819 5691 2113 
L 5691 0 
L 5113 0 
L 5113 2094 
Q 5113 2597 4934 2840 
Q 4756 3084 4391 3084 
Q 3944 3084 3684 2787 
Q 3425 2491 3425 1978 
L 3425 0 
L 2847 0 
L 2847 2094 
Q 2847 2600 2669 2842 
Q 2491 3084 2119 3084 
Q 1678 3084 1418 2786 
Q 1159 2488 1159 1978 
L 1159 0 
L 581 0 
L 581 3500 
L 1159 3500 
L 1159 2956 
Q 1356 3278 1631 3431 
Q 1906 3584 2284 3584 
Q 2666 3584 2933 3390 
Q 3200 3197 3328 2828 
z
" transform="scale(0.015625)"/>
       <path id="DejaVuSans-71" d="M 947 1747 
Q 947 1113 1208 752 
Q 1469 391 1925 391 
Q 2381 391 2643 752 
Q 2906 1113 2906 1747 
Q 2906 2381 2643 2742 
Q 2381 3103 1925 3103 
Q 1469 3103 1208 2742 
Q 947 2381 947 1747 
z
M 2906 525 
Q 2725 213 2448 61 
Q 2172 -91 1784 -91 
Q 1150 -91 751 415 
Q 353 922 353 1747 
Q 353 2572 751 3078 
Q 1150 3584 1784 3584 
Q 2172 3584 2448 3432 
Q 2725 3281 2906 2969 
L 2906 3500 
L 3481 3500 
L 3481 -1331 
L 2906 -1331 
L 2906 525 
z
" transform="scale(0.015625)"/>
       <path id="DejaVuSans-6c" d="M 603 4863 
L 1178 4863 
L 1178 0 
L 603 0 
L 603 4863 
z
" transform="scale(0.015625)"/>
      </defs>
      <use xlink:href="#DejaVuSans-6d"/>
      <use xlink:href="#DejaVuSans-79" x="97.412109"/>
      <use xlink:href="#DejaVuSans-73" x="156.591797"/>
      <use xlink:href="#DejaVuSans-71" x="208.691406"/>
      <use xlink:href="#DejaVuSans-6c" x="272.167969"/>
     </g>
    </g>
   </g>
  </g>
 </g>
</svg>
